<svg fill="none" height="30" viewBox="0 0 88 30" width="88" xmlns="http://www.w3.org/2000/svg"><g fill="#000"><path d="m.288002 20.12c0-.6187.181333-1.3333.544-2.144.362668-.832.757338-1.3973 1.183998-1.696.81067.5973 1.632.896 2.464.896l.992-.16c1.152-.3413 1.74934-1.2587 1.792-2.752v-8.15999h-2.56c-.36266 0-.61866-.45866-.768-1.376-.064-.448-.096-.90666-.096-1.376 0-.46933.032-.928.096-1.376.14934-.91733.40534-1.375998.768-1.375998h7.616c.4267 0 .7467.128.96.384001.2133.234667.32.522667.32.863997v15.10399c0 2.0907-.704 3.68-2.112 4.768-1.3867 1.088-3.06133 1.632-5.024 1.632-1.94133 0-3.456-.288-4.544-.864-1.087998-.576-1.631998-1.3653-1.631998-2.368z"/><path d="m22.3973 22.808c0 .1707-.9814.256-2.944.256-1.9414 0-2.912-.0747-2.912-.224v-15.71199c0-.14933.9706-.224 2.912-.224 1.9626 0 2.944.064 2.944.192zm0-17.59999c0 .14934-.9814.224-2.944.224-1.9414 0-2.912-.064-2.912-.192v-4.607999c0-.213333.9706-.319999 2.912-.319999 1.9626 0 2.944.064 2.944.192001z"/><path d="m32.2993 22.808c0 .1493-.768.224-2.304.224-2.1334-.064-3.2-.1813-3.2-.352v-10.368h-.832c-.5547 0-.9174-.4693-1.088-1.408-.0427-.2773-.064-.5547-.064-.832 0-.66132.128-1.32265.384-1.98399.384-.93866.9813-1.408 1.792-1.408.8106 0 1.536.192 2.176.576s1.0666.768 1.28 1.152c1.344-1.152 2.944-1.728 4.8-1.728s3.2.50134 4.032 1.504c.832 1.00267 1.248 2.64529 1.248 4.92799v9.6c0 .256-.9174.384-2.752.384-1.8134 0-2.72-.128-2.72-.384v-9.248c0-1.0667-.3734-1.6-1.12-1.6-.2134 0-.512.096-.896.288-.384.1707-.6294.2987-.736.384z"/><path d="m43.5563 21.88v-14.75199c0-.128.96-.192 2.88-.192 1.9413 0 2.912.05334 2.912.16v17.05599c0 1.5787-.6614 2.8267-1.984 3.744-1.3014.9387-2.9334 1.408-4.896 1.408-2.752 0-4.128-.96-4.128-2.88 0-.64.1066-1.1733.32-1.6.192.0213.4586.032.8.032 1.5573 0 2.624-.2453 3.2-.736.5973-.4907.896-1.2373.896-2.24zm0-16.63999v-4.607999c0-.213333.96-.319999 2.88-.319999 1.9413 0 2.912.064 2.912.192001v4.703997c0 .14934-.9707.224-2.912.224-1.92 0-2.88-.064-2.88-.192z"/><path d="m52.4038 7.19201c0-.23466.9173-.352 2.752-.352 1.8346 0 2.752.11734 2.752.352v9.34399c0 1.0667.3413 1.6 1.024 1.6.512 0 1.088-.224 1.728-.672v-10.27199c0-.21333.9066-.32 2.72-.32 1.8133 0 2.7199.10667 2.7199.32v10.49599h.832c.7254 0 1.088.6933 1.088 2.08 0 .704-.1493 1.4187-.448 2.144-.4266.9387-1.0026 1.408-1.7279 1.408-1.4294 0-2.4854-.5867-3.168-1.76l-.032.032c-1.3014 1.152-2.6987 1.728-4.192 1.728-2.0694 0-3.5947-.512-4.576-1.536-.9814-1.0453-1.472-2.7627-1.472-5.152z"/></g><path d="m86.54 23.32h-15.2c-.384 0-.6613-.3093-.832-.928-.0853-.32-.128-.6293-.128-.928s.0427-.608.128-.928c.1707-.6187.448-.928.832-.928h15.2c.384 0 .6613.3093.832.928.0853.32.128.6293.128.928s-.0427.608-.128.928c-.1707.6187-.448.928-.832.928z" fill="#e84393"/><path d="m.288002 20.12c0-.6187.181333-1.3333.544-2.144.362668-.832.757338-1.3973 1.183998-1.696.81067.5973 1.632.896 2.464.896l.992-.16c1.152-.3413 1.74934-1.2587 1.792-2.752v-8.15999h-2.56c-.36266 0-.61866-.45866-.768-1.376-.064-.448-.096-.90666-.096-1.376 0-.46933.032-.928.096-1.376.14934-.91733.40534-1.375998.768-1.375998h7.616c.4267 0 .7467.128.96.384001.2133.234667.32.522667.32.863997v15.10399c0 2.0907-.704 3.68-2.112 4.768-1.3867 1.088-3.06133 1.632-5.024 1.632-1.94133 0-3.456-.288-4.544-.864-1.087998-.576-1.631998-1.3653-1.631998-2.368z" fill="#000"/><path d="m22.3973 22.808c0 .1707-.9814.256-2.944.256-1.9414 0-2.912-.0747-2.912-.224v-15.71199c0-.14933.9706-.224 2.912-.224 1.9626 0 2.944.064 2.944.192zm0-17.59999c0 .14934-.9814.224-2.944.224-1.9414 0-2.912-.064-2.912-.192v-4.607999c0-.213333.9706-.319999 2.912-.319999 1.9626 0 2.944.064 2.944.192001z" fill="#000"/><path d="m32.2993 22.808c0 .1493-.768.224-2.304.224-2.1334-.064-3.2-.1813-3.2-.352v-10.368h-.832c-.5547 0-.9174-.4693-1.088-1.408-.0427-.2773-.064-.5547-.064-.832 0-.66132.128-1.32265.384-1.98399.384-.93866.9813-1.408 1.792-1.408.8106 0 1.536.192 2.176.576s1.0666.768 1.28 1.152c1.344-1.152 2.944-1.728 4.8-1.728s3.2.50134 4.032 1.504c.832 1.00267 1.248 2.64529 1.248 4.92799v9.6c0 .256-.9174.384-2.752.384-1.8134 0-2.72-.128-2.72-.384v-9.248c0-1.0667-.3734-1.6-1.12-1.6-.2134 0-.512.096-.896.288-.384.1707-.6294.2987-.736.384z" fill="#000"/><path d="m43.5563 21.88v-14.75199c0-.128.96-.192 2.88-.192 1.9413 0 2.912.05334 2.912.16v17.05599c0 1.5787-.6614 2.8267-1.984 3.744-1.3014.9387-2.9334 1.408-4.896 1.408-2.752 0-4.128-.96-4.128-2.88 0-.64.1066-1.1733.32-1.6.192.0213.4586.032.8.032 1.5573 0 2.624-.2453 3.2-.736.5973-.4907.896-1.2373.896-2.24zm0-16.63999v-4.607999c0-.213333.96-.319999 2.88-.319999 1.9413 0 2.912.064 2.912.192001v4.703997c0 .14934-.9707.224-2.912.224-1.92 0-2.88-.064-2.88-.192z" fill="#000"/><path d="m52.4038 7.19201c0-.23466.9173-.352 2.752-.352 1.8346 0 2.752.11734 2.752.352v9.34399c0 1.0667.3413 1.6 1.024 1.6.512 0 1.088-.224 1.728-.672v-10.27199c0-.21333.9066-.32 2.72-.32 1.8133 0 2.7199.10667 2.7199.32v10.49599h.832c.7254 0 1.088.6933 1.088 2.08 0 .704-.1493 1.4187-.448 2.144-.4266.9387-1.0026 1.408-1.7279 1.408-1.4294 0-2.4854-.5867-3.168-1.76l-.032.032c-1.3014 1.152-2.6987 1.728-4.192 1.728-2.0694 0-3.5947-.512-4.576-1.536-.9814-1.0453-1.472-2.7627-1.472-5.152z" fill="#000"/></svg>