<svg xmlns="http://www.w3.org/2000/svg" width="538" height="235" fill="none"><path fill="#fff" d="M2.133 171.46c0-3.983 1.167-8.583 3.502-13.802 2.335-5.356 4.875-8.995 7.622-10.918 5.219 3.845 10.506 5.768 15.862 5.768l6.386-1.03c7.416-2.197 11.261-8.103 11.536-17.716v-52.53h-16.48c-2.335 0-3.983-2.953-4.944-8.858A62.567 62.567 0 0 1 25 63.516c0-3.021.206-5.974.618-8.858.961-5.905 2.61-8.858 4.944-8.858H79.59c2.747 0 4.807.824 6.18 2.472 1.373 1.51 2.06 3.365 2.06 5.562v97.232c0 13.459-4.532 23.69-13.596 30.694-8.927 7.004-19.707 10.506-32.342 10.506-12.497 0-22.248-1.854-29.252-5.562-7.004-3.708-10.506-8.789-10.506-15.244Zm136.148 17.304c0 1.099-6.317 1.648-18.952 1.648-12.497 0-18.746-.481-18.746-1.442V87.824c0-.961 6.249-1.442 18.746-1.442 12.635 0 18.952.412 18.952 1.236v101.146Zm0-113.3c0 .961-6.317 1.442-18.952 1.442-12.497 0-18.746-.412-18.746-1.236V46.006c0-1.373 6.249-2.06 18.746-2.06 12.635 0 18.952.412 18.952 1.236v30.282Zm57.564 113.3c0 .961-4.944 1.442-14.832 1.442-13.733-.412-20.6-1.167-20.6-2.266v-66.744h-5.356c-3.57 0-5.905-3.021-7.004-9.064a35.26 35.26 0 0 1-.412-5.356c0-4.257.824-8.515 2.472-12.772 2.472-6.043 6.318-9.064 11.536-9.064 5.219 0 9.888 1.236 14.008 3.708 4.12 2.472 6.867 4.944 8.24 7.416 8.652-7.416 18.952-11.124 30.9-11.124 11.948 0 20.6 3.227 25.956 9.682 5.356 6.455 8.034 17.029 8.034 31.724v61.8c0 1.648-5.905 2.472-17.716 2.472-11.673 0-17.51-.824-17.51-2.472v-59.534c0-6.867-2.403-10.3-7.21-10.3-1.373 0-3.296.618-5.768 1.854-2.472 1.099-4.051 1.923-4.738 2.472v66.126Zm66.287-5.974V87.824c0-.824 6.18-1.236 18.54-1.236 12.498 0 18.746.343 18.746 1.03v109.798c0 10.163-4.257 18.197-12.772 24.102-8.377 6.043-18.883 9.064-31.518 9.064-17.716 0-26.574-6.18-26.574-18.54 0-4.12.687-7.553 2.06-10.3 1.236.137 2.953.206 5.15.206 10.026 0 16.892-1.579 20.6-4.738 3.846-3.159 5.768-7.965 5.768-14.42Zm0-107.12V46.006c0-1.373 6.18-2.06 18.54-2.06 12.498 0 18.746.412 18.746 1.236v30.282c0 .961-6.248 1.442-18.746 1.442-12.36 0-18.54-.412-18.54-1.236Zm50.776 12.566c0-1.51 5.906-2.266 17.716-2.266 11.811 0 17.716.755 17.716 2.266v60.152c0 6.867 2.198 10.3 6.592 10.3 3.296 0 7.004-1.442 11.124-4.326V88.236c0-1.373 5.837-2.06 17.51-2.06 11.674 0 17.51.687 17.51 2.06v67.568h5.356c4.67 0 7.004 4.463 7.004 13.39 0 4.532-.961 9.133-2.884 13.802-2.746 6.043-6.454 9.064-11.124 9.064-9.201 0-15.999-3.777-20.394-11.33l-.206.206c-8.377 7.416-17.372 11.124-26.986 11.124-13.321 0-23.14-3.296-29.458-9.888-6.317-6.729-9.476-17.785-9.476-33.166v-60.77Z"/><path fill="#E84393" d="M531.03 190h-97.85c-2.472 0-4.257-1.991-5.356-5.974-.549-2.06-.824-4.051-.824-5.974s.275-3.914.824-5.974c1.099-3.983 2.884-5.974 5.356-5.974h97.85c2.472 0 4.257 1.991 5.356 5.974.549 2.06.824 4.051.824 5.974s-.275 3.914-.824 5.974c-1.099 3.983-2.884 5.974-5.356 5.974Z"/></svg>
